<svg width="256" height="256" xmlns="http://www.w3.org/2000/svg" fill="#d2738a">

 <g>
  <title>Layer 1</title>
  <path stroke-width="10" fill="#d2738a" stroke="null" id="svg_1" d="m128,70.02084a57.97916,57.97916 0 1 0 57.97916,57.97916a58.04476,58.04476 0 0 0 -57.97916,-57.97916zm0,105.41666a47.4375,47.4375 0 1 1 47.4375,-47.4375a47.49101,47.49101 0 0 1 -47.4375,47.4375zm57.97916,-173.93749l-115.95833,0a68.59857,68.59857 0 0 0 -68.52083,68.52083l0,115.95833a68.59857,68.59857 0 0 0 68.52083,68.52083l115.95833,0a68.59857,68.59857 0 0 0 68.52083,-68.52083l0,-115.95833a68.59857,68.59857 0 0 0 -68.52083,-68.52083zm57.97916,184.47916a58.04476,58.04476 0 0 1 -57.97916,57.97916l-115.95833,0a58.04476,58.04476 0 0 1 -57.97916,-57.97916l0,-115.95833a58.04476,58.04476 0 0 1 57.97916,-57.97916l115.95833,0a58.04476,58.04476 0 0 1 57.97916,57.97916l0,115.95833zm-36.89583,-126.49999a10.54167,10.54167 0 1 1 -10.54167,-10.54167a10.55375,10.55375 0 0 1 10.54167,10.54167z"/>
 </g>
</svg>